<svg id="stopwatch_" data-name="stopwatch " xmlns="http://www.w3.org/2000/svg" width="51.781" height="45.063" viewBox="0 0 51.781 45.063">
  <defs>
    <style>
      .cls-1, .cls-5 {
        fill: #64a4d7;
      }

      .cls-2 {
        fill: #4c92ca;
      }

      .cls-3 {
        fill: #fff;
      }

      .cls-3, .cls-4, .cls-5 {
        fill-rule: evenodd;
      }

      .cls-4 {
        fill: #89bae1;
      }
    </style>
  </defs>
  <circle id="body" class="cls-1" cx="35.203" cy="28.094" r="16.578"/>
  <circle id="layer" class="cls-2" cx="35.219" cy="28.094" r="13.469"/>
  <path id="arrow" class="cls-3" d="M35.429,17.55a1.048,1.048,0,0,1,1.036,1.06v9.01a1.036,1.036,0,1,1-2.071,0V18.61A1.048,1.048,0,0,1,35.429,17.55Zm0,8.48a2.121,2.121,0,1,1-2.071,2.12A2.1,2.1,0,0,1,35.429,26.03Z" transform="translate(-0.219 -0.063)"/>
  <path id="layer-2" data-name="layer" class="cls-4" d="M35.429,0.06a6.288,6.288,0,0,1,6.214,6.36,6.216,6.216,0,1,1-12.429,0A6.288,6.288,0,0,1,35.429.06Zm0,1.59a4.716,4.716,0,0,1,4.661,4.77,4.662,4.662,0,1,1-9.321,0A4.716,4.716,0,0,1,35.429,1.65Z" transform="translate(-0.219 -0.063)"/>
  <path id="button_leg" data-name="button leg" class="cls-4" d="M33.875,6.95h3.107v4.24H33.875V6.95Z" transform="translate(-0.219 -0.063)"/>
  <path id="button" class="cls-4" d="M33.357,4.83H37.5a1.048,1.048,0,0,1,1.036,1.06V6.95A1.048,1.048,0,0,1,37.5,8.01H33.357a1.048,1.048,0,0,1-1.036-1.06V5.89A1.048,1.048,0,0,1,33.357,4.83Z" transform="translate(-0.219 -0.063)"/>
  <path id="lines" class="cls-5" d="M6.429,15.96H16.786a1.06,1.06,0,0,1,0,2.12H6.429A1.06,1.06,0,0,1,6.429,15.96ZM1.25,21.26H11.607a1.06,1.06,0,0,1,0,2.12H1.25A1.06,1.06,0,0,1,1.25,21.26Zm0,10.6H11.607a1.06,1.06,0,0,1,0,2.12H1.25A1.06,1.06,0,0,1,1.25,31.86Zm5.7,5.3H17.3a1.06,1.06,0,0,1,0,2.12H6.946A1.06,1.06,0,0,1,6.946,37.16ZM2.8,26.56H14.2a1.06,1.06,0,0,1,0,2.12H2.8A1.06,1.06,0,0,1,2.8,26.56Z" transform="translate(-0.219 -0.063)"/>
</svg>
