<svg id="tweet" xmlns="http://www.w3.org/2000/svg" width="53" height="52" viewBox="0 0 53 52">
  <defs>
    <style>
      .cls-1 {
        fill: #fff;
        fill-opacity: 0.25;
      }

      .cls-1, .cls-2, .cls-3, .cls-4 {
        fill-rule: evenodd;
      }

      .cls-2 {
        fill: #3d81b7;
      }

      .cls-3 {
        fill: #e4e7e7;
      }

      .cls-4 {
        fill: #64a4d7;
      }
    </style>
  </defs>
  <path id="gradient" class="cls-1" d="M0.525,0H53V52H0.525V0Z"/>
  <path id="speechbubble" class="cls-2" d="M2.1,5.72H17.842a2.09,2.09,0,0,1,2.1,2.08V19.24a2.09,2.09,0,0,1-2.1,2.08H10.5a3.355,3.355,0,0,0-1.587.412c-0.787.624-.731,0.79-1.835,1.665,0.026-.021-1.311,1.2-1.311-0.008,0-1.233,0-2.069,0-2.069H2.1A2.09,2.09,0,0,1,0,19.24V7.8A2.09,2.09,0,0,1,2.1,5.72Z"/>
  <path id="speechbubble-2" data-name="speechbubble" class="cls-3" d="M50.9,10.92H35.158a2.09,2.09,0,0,0-2.1,2.08v11.44a2.089,2.089,0,0,0,2.1,2.08H42.5a3.358,3.358,0,0,1,1.586.412c0.787,0.624.731,0.79,1.835,1.666-0.026-.021,1.311,1.2,1.311-0.008,0-1.232,0-2.069,0-2.069H50.9a2.09,2.09,0,0,0,2.1-2.08V13A2.09,2.09,0,0,0,50.9,10.92Z"/>
  <path id="speechbubble-3" data-name="speechbubble" class="cls-4" d="M15.218,15.6H38.307a2.089,2.089,0,0,1,2.1,2.08V35.36a2.089,2.089,0,0,1-2.1,2.08H26.246a3.357,3.357,0,0,0-1.586.412l-3.409,2.706c0.026-.021-1.311,1.2-1.311-0.008,0-1.232,0-3.11,0-3.11H15.218a2.089,2.089,0,0,1-2.1-2.08V17.68A2.089,2.089,0,0,1,15.218,15.6Z"/>
</svg>
