<svg id="Ico" xmlns="http://www.w3.org/2000/svg" width="37.969" height="52" viewBox="0 0 37.969 52">
  <defs>
    <style>
      .cls-1 {
        fill: #e4e7e7;
      }

      .cls-1, .cls-2, .cls-3, .cls-4, .cls-5 {
        fill-rule: evenodd;
      }

      .cls-2 {
        fill: #307cb8;
      }

      .cls-3 {
        fill: #c2c5c5;
      }

      .cls-4 {
        fill: #64a4d7;
      }

      .cls-5 {
        fill: #a5ceef;
      }
    </style>
  </defs>
  <path id="Rounded_Rectangle_7_copy" data-name="Rounded Rectangle 7 copy" class="cls-1" d="M16.519,26.468H34.052A1.956,1.956,0,0,1,36,28.432v21.6A1.956,1.956,0,0,1,34.052,52H16.519a1.956,1.956,0,0,1-1.948-1.964v-21.6A1.956,1.956,0,0,1,16.519,26.468Z"/>
  <path id="layer" class="cls-2" d="M28.317-.01a0.676,0.676,0,0,1,.552.773l-0.414,2.66a0.662,0.662,0,0,1-.759.557,0.676,0.676,0,0,1-.552-0.773l0.414-2.66A0.662,0.662,0,0,1,28.317-.01Zm5.612,2.335a0.653,0.653,0,0,1,.221.9L32.785,5.437a0.659,0.659,0,0,1-1.124-.689l1.364-2.213A0.656,0.656,0,0,1,33.929,2.325ZM22.276,0.407a0.643,0.643,0,0,0-.483.782L22.417,3.73a0.666,0.666,0,0,0,.794.488,0.643,0.643,0,0,0,.483-0.782L23.071,0.9A0.666,0.666,0,0,0,22.276.407ZM37.87,6.518a0.633,0.633,0,0,1-.136.876l-2,1.469a0.614,0.614,0,0,1-.864-0.142A0.634,0.634,0,0,1,35,7.845l2-1.469A0.613,0.613,0,0,1,37.87,6.518ZM17.258,3.126A0.633,0.633,0,0,0,17.122,4L18.577,6.04a0.614,0.614,0,0,0,.864.142,0.633,0.633,0,0,0,.137-0.877L18.122,3.268A0.613,0.613,0,0,0,17.258,3.126Z"/>
  <path id="Rectangle_6_copy_3" data-name="Rectangle 6 copy 3" class="cls-3" d="M18.468,31.705H32.753v1.964H18.468V31.705Zm0,4.583H32.753v1.964H18.468V36.288Zm0,4.583H32.753v1.964H18.468V40.871Zm0,4.583H32.753v1.964H18.468V45.453Z"/>
  <path id="Rounded_Rectangle_7" data-name="Rounded Rectangle 7" class="cls-4" d="M2.571,12H25.714a2.562,2.562,0,0,1,2.571,2.553V42.638a2.562,2.562,0,0,1-2.571,2.553H2.571A2.562,2.562,0,0,1,0,42.638V14.553A2.562,2.562,0,0,1,2.571,12Z"/>
  <path id="Rectangle_6_copy_2" data-name="Rectangle 6 copy 2" class="cls-5" d="M5.143,18.808H24v2.553H5.143V18.808Zm0,5.958H24v2.553H5.143V24.766Zm0,5.958H24v2.553H5.143V30.723Zm0,5.958H24v2.553H5.143V36.681Z"/>
</svg>
